<svg width="420" height="170" viewBox="0 0 420 170" fill="none" xmlns="http://www.w3.org/2000/svg" role="img" aria-labelledby="title desc">
  <title id="title">Top languages</title>
  <desc id="desc">Top languages by public repositories for dw1rf</desc>
  <defs>
    <linearGradient id="bg" x1="0" y1="0" x2="420" y2="170" gradientUnits="userSpaceOnUse">
      <stop stop-color="#111827"/>
      <stop offset="1" stop-color="#0F172A"/>
    </linearGradient>
  </defs>
  <rect width="420" height="170" rx="12" fill="url(#bg)"/>
  <rect x="1" y="1" width="418" height="168" rx="11" stroke="#334155" stroke-width="2"/>
  <text x="24" y="38" fill="#E5E7EB" font-family="Segoe UI, Arial, sans-serif" font-size="20" font-weight="700">Top languages</text>
  <text x="24" y="62" fill="#94A3B8" font-family="Segoe UI, Arial, sans-serif" font-size="13">by public repositories</text>
  <rect x="24" y="82" width="372" height="12" rx="6" fill="#1E293B"/>
  <rect x="24" y="82" width="155" height="12" rx="6" fill="#3776AB"/>
  <rect x="179" y="82" width="93" height="12" fill="#3178C6"/>
  <rect x="272" y="82" width="62" height="12" fill="#00599C"/>
  <rect x="334" y="82" width="31" height="12" fill="#E34F26"/>
  <rect x="365" y="82" width="31" height="12" rx="6" fill="#C1F12E"/>
  <circle cx="31" cy="119" r="5" fill="#3776AB"/>
  <text x="44" y="124" fill="#E5E7EB" font-family="Segoe UI, Arial, sans-serif" font-size="13">Python 5</text>
  <circle cx="155" cy="119" r="5" fill="#3178C6"/>
  <text x="168" y="124" fill="#E5E7EB" font-family="Segoe UI, Arial, sans-serif" font-size="13">TypeScript 3</text>
  <circle cx="295" cy="119" r="5" fill="#00599C"/>
  <text x="308" y="124" fill="#E5E7EB" font-family="Segoe UI, Arial, sans-serif" font-size="13">C++ 2</text>
  <circle cx="31" cy="145" r="5" fill="#E34F26"/>
  <text x="44" y="150" fill="#E5E7EB" font-family="Segoe UI, Arial, sans-serif" font-size="13">HTML 1</text>
  <circle cx="155" cy="145" r="5" fill="#C1F12E"/>
  <text x="168" y="150" fill="#E5E7EB" font-family="Segoe UI, Arial, sans-serif" font-size="13">Batchfile 1</text>
</svg>
